<svg xmlns="http://www.w3.org/2000/svg" viewBox="0 0 680 297"><title>NotkoLogoBlack</title><g id="Layer_3" data-name="Layer 3"><path d="M644,465" transform="translate(-33 -221)"/><polyline points="613.895 244.7 510.105 244.7 523.873 222.459 545.055 221.4 612.836 221.4 613.895 221.4"/></g><g id="Layer_2" data-name="Layer 2"><path d="M102.9834,463.78711V270.3916h20.7207l48.34912,119.57715V270.3916h27.62793V463.78711h-19.6416L130.61133,335.14453V463.78711Z" transform="translate(-33 -221)"/><path d="M296.81055,452.7793Q287.2041,465.73,264.97363,465.72949q-22.23339,0-31.83691-12.95019-9.60645-12.95068-9.605-37.34082v-41.4419q0-24.38892,9.605-37.34131,9.60424-12.94995,31.83691-12.95019,22.2312,0,31.83692,12.95019,9.60424,12.95069,9.605,37.34131v41.4419Q306.41553,439.82959,296.81055,452.7793Zm-36.96289-10.57617a15.65158,15.65158,0,0,0,10.25244,0,12.76423,12.76423,0,0,0,3.66943-2.1045,9.20068,9.20068,0,0,0,2.42822-3.66992q.97119-2.42724,1.51075-4.26269a25.604,25.604,0,0,0,.75537-5.28809q.21533-3.45264.27-5.4502.05273-1.9951.05371-5.98925v-41.4419q0-3.9917-.05371-5.98974-.05566-1.99586-.27-5.4502a25.64143,25.64143,0,0,0-.75537-5.28809q-.54126-1.834-1.51075-4.26269a9.20911,9.20911,0,0,0-2.42822-3.66943,12.84368,12.84368,0,0,0-3.66943-2.1045,15.65158,15.65158,0,0,0-10.25244,0,12.81019,12.81019,0,0,0-3.66944,2.1045,9.204,9.204,0,0,0-2.42822,3.66943q-.97119,2.428-1.51123,4.26269a25.40634,25.40634,0,0,0-.75537,5.28809q-.21753,3.45556-.26953,5.4502-.05566,1.998-.0542,5.98974v41.4419q0,3.99316.0542,5.98925.05273,1.99806.26953,5.4502a25.36958,25.36958,0,0,0,.75537,5.28809q.53906,1.83691,1.51123,4.26269a9.19558,9.19558,0,0,0,2.42822,3.66992A12.73115,12.73115,0,0,0,259.84766,442.20313Z" transform="translate(-33 -221)"/><path d="M367.39111,465.72949q-16.29711,0-23.689-8.30957-7.39307-8.31006-7.6084-25.14551V346.36865h-13.814V325.64746h13.814V277.29883h27.62793v48.34863h20.7207v20.72119h-20.7207v80.61768q0,8.31151,2.2666,12.19433,2.26611,3.88623,9.17383,3.88575a60.60844,60.60844,0,0,0,9.28027-1.07911v22.44727A142.66871,142.66871,0,0,1,367.39111,465.72949Z" transform="translate(-33 -221)"/><path d="M404.624,463.78711V270.3916H432.252V376.69434l34.53516-51.04688H494.415l-30.97363,48.24121L494.415,463.78711H466.78711L446.06543,396.9834,432.252,415.43848v48.34863Z" transform="translate(-33 -221)"/><path d="M577.19043,452.7793Q567.584,465.73,545.35352,465.72949q-22.23341,0-31.83692-12.95019-9.60645-12.95068-9.60449-37.34082v-41.4419q0-24.38892,9.60449-37.34131,9.605-12.94995,31.83692-12.95019,22.23046,0,31.83691,12.95019,9.60351,12.95069,9.60547,37.34131v41.4419Q586.7959,439.82959,577.19043,452.7793Zm-36.96289-10.57617a15.65012,15.65012,0,0,0,10.252,0,12.754,12.754,0,0,0,3.66992-2.1045,9.2,9.2,0,0,0,2.42774-3.66992q.97119-2.42724,1.51074-4.26269a25.53005,25.53005,0,0,0,.75586-5.28809q.21533-3.45264.26953-5.4502.05419-1.9951.05469-5.98925v-41.4419q0-3.9917-.05469-5.98974-.05566-1.99586-.26953-5.4502a25.56728,25.56728,0,0,0-.75586-5.28809q-.54053-1.834-1.51074-4.26269a9.20844,9.20844,0,0,0-2.42774-3.66943,12.83329,12.83329,0,0,0-3.66992-2.1045,15.65012,15.65012,0,0,0-10.252,0,12.81987,12.81987,0,0,0-3.66992,2.1045,9.20844,9.20844,0,0,0-2.42774,3.66943q-.97119,2.428-1.51074,4.26269a25.368,25.368,0,0,0-.75586,5.28809q-.2168,3.45556-.26953,5.4502-.05566,1.998-.05371,5.98974v41.4419q0,3.99316.05371,5.98925.05274,1.99806.26953,5.4502a25.33137,25.33137,0,0,0,.75586,5.28809q.5376,1.83691,1.51074,4.26269a9.2,9.2,0,0,0,2.42774,3.66992A12.74073,12.74073,0,0,0,540.22754,442.20313Z" transform="translate(-33 -221)"/></g><g id="Layer_4" data-name="Layer 4"><rect width="680" height="24"/><rect y="273" width="680" height="24"/></g></svg>